<svg xmlns="http://www.w3.org/2000/svg" xmlns:xlink="http://www.w3.org/1999/xlink" width="300" zoomAndPan="magnify" viewBox="0 0 300 149.999998" height="149.999998" preserveAspectRatio="xMidYMid meet" version="1.0"><defs><g><g id="id1"/></g><clipPath id="id2"><path d="M 108.816406 0 L 144 0 L 144 33 L 108.816406 33 Z M 108.816406 0 " clip-rule="nonzero"/></clipPath><clipPath id="id3"><path d="M 142.261719 104 L 151 104 L 151 117 L 142.261719 117 Z M 142.261719 104 " clip-rule="nonzero"/></clipPath><clipPath id="id4"><path d="M 154 109 L 166 109 L 166 119.273438 L 154 119.273438 Z M 154 109 " clip-rule="nonzero"/></clipPath><clipPath id="id5"><path d="M 150 96.023438 L 163 96.023438 L 163 104 L 150 104 Z M 150 96.023438 " clip-rule="nonzero"/></clipPath><clipPath id="id6"><path d="M 145 96.023438 L 154 96.023438 L 154 105 L 145 105 Z M 145 96.023438 " clip-rule="nonzero"/></clipPath><clipPath id="id7"><path d="M 158 102 L 166.261719 102 L 166.261719 112 L 158 112 Z M 158 102 " clip-rule="nonzero"/></clipPath></defs><rect x="-30" width="360" fill="rgb(100%, 100%, 100%)" y="-15" height="179.999997" fill-opacity="1"/><rect x="-30" width="360" fill="rgb(100%, 100%, 100%)" y="-15" height="179.999997" fill-opacity="1"/><rect x="-30" width="360" fill="rgb(85.879517%, 89.408875%, 87.059021%)" y="-15" height="179.999997" fill-opacity="1"/><path fill="rgb(93.728638%, 64.709473%, 30.979919%)" d="M 124.421875 7.164062 L 149.078125 18.394531 C 149.078125 18.394531 157.042969 13.421875 162.304688 14.699219 C 167.566406 15.972656 170.671875 18.296875 171.707031 20.402344 C 172.742188 22.503906 176.136719 30.523438 173.535156 31.125 C 170.933594 31.726562 169.457031 27.691406 169.457031 27.691406 C 169.457031 27.691406 171.804688 34.082031 169.148438 34.558594 C 166.488281 35.035156 163.945312 30.464844 163.945312 30.464844 L 157.835938 32.859375 C 157.835938 32.859375 152.269531 36.363281 146.425781 33.242188 C 140.578125 30.125 119.769531 24.113281 119.769531 24.113281 Z M 124.421875 7.164062 " fill-opacity="1" fill-rule="nonzero"/><path fill="rgb(100%, 96.078491%, 87.059021%)" d="M 174.238281 19.605469 L 172.246094 20.707031 C 172.246094 20.707031 168.003906 18.355469 163.625 20.226562 C 159.246094 22.09375 146.300781 31.136719 146.300781 31.136719 C 146.300781 31.136719 143.015625 33.140625 144.777344 36.4375 C 146.542969 39.734375 146.910156 40.15625 146.910156 40.15625 C 146.910156 40.15625 148.523438 42.527344 152.367188 40.832031 C 156.214844 39.140625 169.613281 31.992188 169.613281 31.992188 C 169.613281 31.992188 175.582031 29.464844 173.945312 24.074219 L 175.90625 23.152344 Z M 174.238281 19.605469 " fill-opacity="1" fill-rule="nonzero"/><path fill="rgb(36.079407%, 50.979614%, 29.798889%)" d="M 172.695312 20.125 L 174.902344 23.96875 L 177.042969 23.0625 L 174.921875 18.8125 Z M 172.695312 20.125 " fill-opacity="1" fill-rule="nonzero"/><path fill="rgb(36.079407%, 50.979614%, 29.798889%)" d="M 162.226562 20.878906 L 169.246094 32.242188 L 163.097656 35.429688 L 155.925781 24.480469 Z M 162.226562 20.878906 " fill-opacity="1" fill-rule="nonzero"/><path fill="rgb(36.079407%, 50.979614%, 29.798889%)" d="M 119.886719 59.988281 C 119.886719 59.988281 118.984375 70.617188 122.761719 72.175781 C 126.542969 73.734375 145.109375 75.863281 159.40625 75.71875 C 173.699219 75.578125 189.144531 72.316406 190.214844 69.625 C 191.28125 66.933594 190.214844 59.988281 190.214844 59.988281 Z M 119.886719 59.988281 " fill-opacity="1" fill-rule="nonzero"/><path fill="rgb(93.728638%, 64.709473%, 30.979919%)" d="M 154.515625 25.0625 C 154.515625 25.0625 160.6875 28.285156 159.738281 31.078125 C 158.792969 33.867188 148.757812 29.023438 148.757812 29.023438 Z M 154.515625 25.0625 " fill-opacity="1" fill-rule="nonzero"/><path fill="rgb(24.708557%, 24.708557%, 23.529053%)" d="M 190.214844 59.988281 C 190.214844 60.191406 190.15625 60.394531 190.042969 60.59375 C 189.929688 60.796875 189.761719 60.996094 189.539062 61.195312 C 189.3125 61.390625 189.035156 61.589844 188.699219 61.78125 C 188.367188 61.976562 187.976562 62.167969 187.539062 62.351562 C 187.097656 62.539062 186.605469 62.722656 186.0625 62.902344 C 185.519531 63.078125 184.925781 63.253906 184.289062 63.421875 C 183.648438 63.589844 182.960938 63.75 182.230469 63.90625 C 181.5 64.0625 180.730469 64.214844 179.914062 64.355469 C 179.101562 64.5 178.25 64.636719 177.359375 64.765625 C 176.46875 64.894531 175.542969 65.011719 174.585938 65.125 C 173.628906 65.238281 172.640625 65.339844 171.625 65.4375 C 170.609375 65.53125 169.570312 65.617188 168.507812 65.695312 C 167.441406 65.773438 166.359375 65.84375 165.257812 65.902344 C 164.15625 65.960938 163.039062 66.007812 161.910156 66.046875 C 160.78125 66.085938 159.644531 66.117188 158.496094 66.136719 C 157.351562 66.15625 156.203125 66.167969 155.050781 66.167969 C 153.898438 66.167969 152.75 66.15625 151.605469 66.136719 C 150.457031 66.117188 149.320312 66.085938 148.191406 66.046875 C 147.0625 66.007812 145.945312 65.960938 144.84375 65.902344 C 143.742188 65.84375 142.660156 65.773438 141.59375 65.695312 C 140.53125 65.617188 139.492188 65.53125 138.476562 65.4375 C 137.460938 65.339844 136.472656 65.238281 135.515625 65.125 C 134.558594 65.011719 133.632812 64.894531 132.742188 64.765625 C 131.851562 64.636719 131 64.5 130.1875 64.355469 C 129.371094 64.214844 128.601562 64.0625 127.871094 63.90625 C 127.140625 63.75 126.453125 63.589844 125.8125 63.421875 C 125.175781 63.253906 124.582031 63.078125 124.039062 62.902344 C 123.496094 62.722656 123.003906 62.539062 122.5625 62.351562 C 122.125 62.167969 121.734375 61.976562 121.402344 61.78125 C 121.066406 61.589844 120.789062 61.390625 120.5625 61.195312 C 120.339844 60.996094 120.167969 60.796875 120.058594 60.59375 C 119.945312 60.394531 119.886719 60.191406 119.886719 59.988281 C 119.886719 59.785156 119.945312 59.585938 120.058594 59.382812 C 120.167969 59.183594 120.339844 58.980469 120.5625 58.785156 C 120.789062 58.585938 121.066406 58.390625 121.402344 58.195312 C 121.734375 58.003906 122.125 57.8125 122.5625 57.625 C 123.003906 57.4375 123.496094 57.253906 124.039062 57.078125 C 124.582031 56.898438 125.175781 56.726562 125.8125 56.558594 C 126.453125 56.386719 127.140625 56.226562 127.871094 56.070312 C 128.601562 55.914062 129.371094 55.761719 130.1875 55.621094 C 131 55.476562 131.851562 55.339844 132.742188 55.214844 C 133.632812 55.085938 134.558594 54.964844 135.515625 54.851562 C 136.472656 54.738281 137.460938 54.636719 138.476562 54.539062 C 139.492188 54.445312 140.53125 54.359375 141.59375 54.28125 C 142.660156 54.203125 143.742188 54.136719 144.84375 54.078125 C 145.945312 54.019531 147.0625 53.96875 148.191406 53.929688 C 149.320312 53.890625 150.457031 53.859375 151.605469 53.839844 C 152.75 53.820312 153.898438 53.8125 155.050781 53.8125 C 156.203125 53.8125 157.351562 53.820312 158.496094 53.839844 C 159.644531 53.859375 160.78125 53.890625 161.910156 53.929688 C 163.039062 53.96875 164.15625 54.019531 165.257812 54.078125 C 166.359375 54.136719 167.441406 54.203125 168.507812 54.28125 C 169.570312 54.359375 170.609375 54.445312 171.625 54.539062 C 172.640625 54.636719 173.628906 54.738281 174.585938 54.851562 C 175.542969 54.964844 176.46875 55.085938 177.359375 55.214844 C 178.25 55.339844 179.101562 55.476562 179.914062 55.621094 C 180.730469 55.761719 181.5 55.914062 182.230469 56.070312 C 182.960938 56.226562 183.648438 56.386719 184.289062 56.558594 C 184.925781 56.726562 185.519531 56.898438 186.0625 57.078125 C 186.605469 57.253906 187.097656 57.4375 187.539062 57.625 C 187.976562 57.8125 188.367188 58.003906 188.699219 58.195312 C 189.035156 58.390625 189.3125 58.585938 189.539062 58.785156 C 189.761719 58.980469 189.929688 59.183594 190.042969 59.382812 C 190.15625 59.585938 190.214844 59.785156 190.214844 59.988281 Z M 190.214844 59.988281 " fill-opacity="1" fill-rule="nonzero"/><path fill="rgb(17.649841%, 69.40918%, 53.729248%)" d="M 137.820312 57.925781 C 137.820312 57.925781 144.449219 54.28125 148.328125 56.40625 C 152.207031 58.53125 156.007812 62.152344 158.59375 61.601562 C 161.179688 61.050781 160.210938 69.394531 160.210938 69.394531 L 140.890625 68.300781 Z M 137.820312 57.925781 " fill-opacity="1" fill-rule="nonzero"/><path fill="rgb(100%, 96.078491%, 87.059021%)" d="M 155.71875 73.496094 L 156.8125 71.871094 C 156.8125 71.871094 160.980469 72.015625 163.597656 68.875 C 166.21875 65.730469 172.582031 53.746094 172.582031 53.746094 C 172.582031 53.746094 174.3125 50.925781 171.667969 49.09375 C 169.027344 47.257812 168.578125 47.078125 168.578125 47.078125 C 168.578125 47.078125 166.414062 45.894531 164.136719 48.695312 C 161.851562 51.496094 154.402344 62.203125 154.402344 62.203125 C 154.402344 62.203125 150.820312 66.472656 154.1875 69.960938 L 153.050781 71.433594 Z M 155.71875 73.496094 " fill-opacity="1" fill-rule="nonzero"/><path fill="rgb(36.079407%, 50.979614%, 29.798889%)" d="M 164.414062 67.824219 L 154.582031 61.871094 L 158.039062 57.023438 L 167.828125 62.601562 Z M 164.414062 67.824219 " fill-opacity="1" fill-rule="nonzero"/><path fill="rgb(100%, 96.078491%, 87.059021%)" d="M 169.117188 59.726562 C 169.117188 59.726562 166.488281 60.089844 165.90625 64.027344 C 165.320312 67.960938 161.964844 74.523438 161.453125 75.910156 C 161.453125 75.910156 164.445312 79.1875 169.117188 78.679688 C 173.792969 78.167969 175.542969 77.074219 178.394531 77.65625 C 181.242188 78.242188 183.648438 75.105469 183.941406 73.136719 C 183.941406 73.136719 180.875 69.710938 179.121094 66.503906 C 177.371094 63.296875 172.550781 57.246094 169.117188 59.726562 Z M 169.117188 59.726562 " fill-opacity="1" fill-rule="nonzero"/><path fill="rgb(100%, 96.078491%, 87.059021%)" d="M 125.273438 47.199219 L 126.304688 49.226562 C 126.304688 49.226562 123.792969 53.371094 125.503906 57.808594 C 127.214844 62.246094 135.789062 75.492188 135.789062 75.492188 C 135.789062 75.492188 137.675781 78.84375 141.042969 77.207031 C 144.40625 75.570312 144.839844 75.21875 144.839844 75.21875 C 144.839844 75.21875 147.273438 73.695312 145.71875 69.796875 C 144.167969 65.894531 137.503906 52.269531 137.503906 52.269531 C 137.503906 52.269531 135.195312 46.222656 129.738281 47.652344 L 128.886719 45.664062 Z M 125.273438 47.199219 " fill-opacity="1" fill-rule="nonzero"/><path fill="rgb(36.079407%, 50.979614%, 29.798889%)" d="M 125.738281 48.753906 L 129.667969 46.695312 L 128.839844 44.527344 L 124.503906 46.484375 Z M 125.738281 48.753906 " fill-opacity="1" fill-rule="nonzero"/><path fill="rgb(36.079407%, 50.979614%, 29.798889%)" d="M 126.109375 59.226562 L 137.742188 52.640625 L 140.707031 58.894531 L 129.484375 65.648438 Z M 126.109375 59.226562 " fill-opacity="1" fill-rule="nonzero"/><path fill="rgb(36.079407%, 50.979614%, 29.798889%)" d="M 190.214844 69.625 C 189.144531 72.316406 173.703125 75.578125 159.40625 75.722656 C 145.113281 75.859375 126.542969 73.734375 122.761719 72.175781 C 118.980469 70.617188 119.890625 59.988281 119.890625 59.988281 C 119.890625 63.402344 135.628906 66.164062 155.050781 66.164062 C 174.46875 66.164062 190.214844 63.402344 190.214844 59.988281 C 190.214844 59.988281 191.28125 66.933594 190.214844 69.625 Z M 190.214844 69.625 " fill-opacity="1" fill-rule="nonzero"/><path fill="rgb(36.079407%, 50.979614%, 29.798889%)" d="M 121.777344 70.988281 C 121.777344 70.988281 127.496094 138.089844 132.433594 143.789062 C 137.375 149.484375 165.835938 149.988281 175.636719 147.882812 C 184.472656 145.984375 188.324219 68.636719 188.324219 68.636719 Z M 121.777344 70.988281 " fill-opacity="1" fill-rule="nonzero"/><g clip-path="url(#id2)"><path fill="rgb(17.649841%, 69.40918%, 53.729248%)" d="M 132.296875 32.472656 C 132.296875 32.472656 137.972656 29.742188 135.574219 25.585938 C 135.574219 25.585938 141.496094 23.261719 138.320312 19.503906 C 138.320312 19.503906 145.878906 17.386719 142.152344 12.902344 C 142.152344 12.902344 121.890625 2.734375 116.085938 0 C 116.085938 0 110.171875 15.089844 108.859375 26.898438 Z M 132.296875 32.472656 " fill-opacity="1" fill-rule="nonzero"/></g><path fill="rgb(100%, 96.078491%, 87.059021%)" d="M 138.867188 137.988281 C 138.589844 137.988281 138.335938 137.8125 138.242188 137.535156 C 133.3125 122.484375 129.058594 82.839844 129.015625 82.4375 C 128.976562 82.078125 129.238281 81.757812 129.597656 81.71875 C 129.953125 81.675781 130.285156 81.941406 130.320312 82.300781 C 130.363281 82.699219 134.605469 122.207031 139.492188 137.128906 C 139.605469 137.472656 139.417969 137.84375 139.074219 137.957031 C 139.003906 137.980469 138.9375 137.988281 138.867188 137.988281 Z M 138.867188 137.988281 " fill-opacity="1" fill-rule="nonzero"/><path fill="rgb(100%, 96.078491%, 87.059021%)" d="M 171.582031 139.007812 C 171.492188 139.007812 171.402344 138.992188 171.320312 138.953125 C 170.984375 138.808594 170.832031 138.421875 170.976562 138.089844 C 176.269531 125.957031 177.628906 82.785156 177.640625 82.351562 C 177.652344 81.988281 177.972656 81.707031 178.316406 81.714844 C 178.679688 81.726562 178.964844 82.027344 178.957031 82.390625 C 178.902344 84.175781 177.574219 126.25 172.183594 138.617188 C 172.074219 138.863281 171.835938 139.007812 171.582031 139.007812 Z M 171.582031 139.007812 " fill-opacity="1" fill-rule="nonzero"/><path fill="rgb(100%, 96.078491%, 87.059021%)" d="M 150.570312 139.007812 C 150.246094 139.007812 149.960938 138.769531 149.917969 138.4375 C 148.324219 126.339844 143.042969 86.246094 143.042969 86.246094 L 144.34375 86.074219 C 144.34375 86.074219 149.628906 126.167969 151.222656 138.269531 C 151.269531 138.628906 151.015625 138.957031 150.65625 139.003906 C 150.625 139.007812 150.597656 139.007812 150.570312 139.007812 Z M 150.570312 139.007812 " fill-opacity="1" fill-rule="nonzero"/><path fill="rgb(100%, 96.078491%, 87.059021%)" d="M 160.1875 138.839844 C 160.15625 138.839844 160.128906 138.839844 160.097656 138.835938 C 159.738281 138.789062 159.484375 138.457031 159.535156 138.097656 C 160.773438 128.832031 162.050781 86.734375 162.0625 86.308594 C 162.074219 85.945312 162.378906 85.667969 162.738281 85.671875 C 163.101562 85.683594 163.386719 85.984375 163.375 86.347656 C 163.363281 86.773438 162.085938 128.9375 160.835938 138.273438 C 160.792969 138.601562 160.511719 138.839844 160.1875 138.839844 Z M 160.1875 138.839844 " fill-opacity="1" fill-rule="nonzero"/><path fill="rgb(24.708557%, 24.708557%, 23.529053%)" d="M 124.5625 72.023438 C 124.5625 72.023438 125.453125 72.347656 127.082031 72.761719 C 127.890625 72.96875 128.882812 73.203125 130.027344 73.421875 C 130.601562 73.535156 131.210938 73.65625 131.859375 73.757812 C 132.503906 73.863281 133.179688 73.988281 133.894531 74.078125 C 134.605469 74.179688 135.34375 74.292969 136.113281 74.371094 C 136.882812 74.453125 137.679688 74.5625 138.5 74.617188 C 140.136719 74.773438 141.871094 74.859375 143.664062 74.957031 C 144.5625 74.984375 145.476562 75.011719 146.398438 75.039062 C 147.324219 75.050781 148.257812 75.039062 149.203125 75.042969 C 150.144531 75.054688 151.09375 75.007812 152.050781 74.980469 C 153.003906 74.949219 153.960938 74.925781 154.917969 74.855469 C 155.875 74.800781 156.832031 74.746094 157.785156 74.691406 C 158.734375 74.609375 159.683594 74.53125 160.625 74.449219 C 161.570312 74.371094 162.503906 74.292969 163.429688 74.214844 C 164.351562 74.132812 165.269531 74.066406 166.160156 73.957031 C 167.945312 73.761719 169.675781 73.570312 171.3125 73.394531 C 172.945312 73.167969 174.488281 72.953125 175.914062 72.757812 C 177.332031 72.511719 178.632812 72.289062 179.78125 72.09375 C 180.921875 71.84375 181.925781 71.660156 182.734375 71.449219 C 183.542969 71.234375 184.183594 71.078125 184.605469 70.933594 C 185.035156 70.804688 185.242188 70.714844 185.242188 70.714844 C 185.320312 70.679688 185.410156 70.714844 185.445312 70.792969 C 185.480469 70.867188 185.445312 70.957031 185.371094 70.992188 C 185.371094 70.992188 185.144531 71.101562 184.714844 71.25 C 184.289062 71.417969 183.65625 71.613281 182.84375 71.851562 C 182.03125 72.09375 181.03125 72.308594 179.890625 72.601562 C 178.738281 72.84375 177.441406 73.109375 176.019531 73.375 C 174.589844 73.601562 173.042969 73.847656 171.410156 74.109375 C 169.765625 74.324219 168.03125 74.542969 166.234375 74.753906 C 165.335938 74.871094 164.425781 74.941406 163.5 75.027344 C 162.578125 75.113281 161.640625 75.199219 160.699219 75.285156 C 159.753906 75.371094 158.804688 75.457031 157.847656 75.546875 C 156.886719 75.605469 155.925781 75.664062 154.964844 75.726562 C 154 75.792969 153.035156 75.808594 152.074219 75.832031 C 151.113281 75.851562 150.15625 75.894531 149.207031 75.875 C 148.257812 75.867188 147.3125 75.875 146.382812 75.851562 C 145.453125 75.820312 144.53125 75.785156 143.628906 75.753906 C 141.820312 75.65625 140.078125 75.519531 138.429688 75.332031 C 137.601562 75.257812 136.804688 75.132812 136.027344 75.035156 C 135.253906 74.941406 134.511719 74.8125 133.796875 74.695312 C 133.082031 74.585938 132.398438 74.457031 131.753906 74.324219 C 131.101562 74.199219 130.492188 74.058594 129.921875 73.925781 C 128.773438 73.667969 127.78125 73.398438 126.972656 73.160156 C 125.351562 72.6875 124.449219 72.308594 124.449219 72.308594 C 124.371094 72.277344 124.335938 72.1875 124.367188 72.109375 C 124.398438 72.03125 124.484375 71.996094 124.5625 72.023438 Z M 124.5625 72.023438 " fill-opacity="1" fill-rule="nonzero"/><g clip-path="url(#id3)"><path fill="rgb(41.178894%, 69.018555%, 42.349243%)" d="M 142.265625 104.65625 C 142.59375 104.636719 142.914062 104.59375 143.238281 104.5625 C 143.636719 104.527344 144.027344 104.441406 144.421875 104.398438 C 144.726562 104.367188 145.035156 104.34375 145.339844 104.332031 C 145.878906 104.308594 146.417969 104.238281 146.953125 104.191406 C 147.113281 104.175781 147.277344 104.15625 147.4375 104.140625 C 147.617188 104.125 147.652344 104.160156 147.699219 104.335938 C 147.730469 104.445312 147.785156 104.546875 147.835938 104.648438 C 148.148438 105.328125 148.464844 106 148.777344 106.679688 C 148.96875 107.101562 149.144531 107.527344 149.335938 107.945312 C 149.511719 108.324219 149.699219 108.691406 149.886719 109.066406 C 149.992188 109.28125 150.089844 109.5 150.214844 109.710938 C 150.222656 109.722656 150.234375 109.738281 150.226562 109.757812 C 150.210938 109.78125 150.191406 109.769531 150.171875 109.765625 C 150.125 109.761719 150.085938 109.742188 150.050781 109.714844 C 149.550781 109.382812 149.035156 109.070312 148.527344 108.75 C 148.46875 108.710938 148.445312 108.722656 148.414062 108.78125 C 147.964844 109.601562 147.542969 110.4375 147.167969 111.296875 C 146.890625 111.9375 146.640625 112.585938 146.515625 113.277344 C 146.417969 113.804688 146.425781 114.332031 146.472656 114.859375 C 146.511719 115.289062 146.59375 115.707031 146.664062 116.128906 C 146.671875 116.199219 146.703125 116.296875 146.625 116.324219 C 146.574219 116.34375 146.535156 116.25 146.507812 116.199219 C 146.28125 115.828125 146.082031 115.441406 145.84375 115.082031 C 145.230469 114.128906 144.652344 113.15625 144.085938 112.171875 C 143.746094 111.582031 143.410156 110.988281 143.078125 110.394531 C 142.984375 110.226562 142.890625 110.050781 142.824219 109.863281 C 142.644531 109.351562 142.660156 108.835938 142.785156 108.3125 C 142.933594 107.695312 143.207031 107.132812 143.496094 106.578125 C 143.617188 106.339844 143.738281 106.105469 143.867188 105.875 C 143.90625 105.800781 143.890625 105.773438 143.828125 105.734375 C 143.339844 105.429688 142.847656 105.121094 142.382812 104.777344 C 142.34375 104.75 142.300781 104.71875 142.261719 104.6875 C 142.261719 104.671875 142.261719 104.664062 142.265625 104.65625 Z M 142.265625 104.65625 " fill-opacity="1" fill-rule="nonzero"/></g><g clip-path="url(#id4)"><path fill="rgb(41.178894%, 69.018555%, 42.349243%)" d="M 157.9375 119.269531 C 157.804688 119.066406 157.6875 118.882812 157.570312 118.699219 C 157.257812 118.195312 156.882812 117.734375 156.566406 117.234375 C 156.285156 116.785156 156.035156 116.316406 155.742188 115.875 C 155.515625 115.527344 155.285156 115.175781 155.054688 114.824219 C 154.953125 114.667969 154.964844 114.613281 155.09375 114.484375 C 155.179688 114.402344 155.242188 114.296875 155.3125 114.199219 C 155.585938 113.828125 155.863281 113.457031 156.132812 113.082031 C 156.386719 112.722656 156.640625 112.367188 156.90625 112.019531 C 157.140625 111.714844 157.367188 111.40625 157.589844 111.09375 C 157.835938 110.75 158.070312 110.398438 158.308594 110.050781 C 158.386719 109.9375 158.464844 109.816406 158.539062 109.699219 C 158.550781 109.683594 158.5625 109.65625 158.582031 109.660156 C 158.605469 109.664062 158.609375 109.691406 158.617188 109.710938 C 158.636719 109.75 158.628906 109.789062 158.625 109.832031 C 158.570312 110.433594 158.546875 111.039062 158.507812 111.644531 C 158.503906 111.722656 158.519531 111.75 158.601562 111.753906 C 159.242188 111.769531 159.878906 111.761719 160.515625 111.742188 C 161.277344 111.71875 162.039062 111.667969 162.792969 111.515625 C 163.59375 111.355469 164.308594 110.992188 164.96875 110.5 C 165.226562 110.308594 165.480469 110.105469 165.730469 109.90625 C 165.773438 109.875 165.816406 109.847656 165.863281 109.828125 C 165.890625 109.820312 165.917969 109.8125 165.9375 109.835938 C 165.964844 109.863281 165.933594 109.878906 165.925781 109.898438 C 165.753906 110.265625 165.515625 110.589844 165.324219 110.945312 C 164.871094 111.785156 164.414062 112.625 163.917969 113.445312 C 163.4375 114.242188 162.953125 115.039062 162.480469 115.839844 C 162.054688 116.558594 161.433594 116.953125 160.640625 117.113281 C 160.03125 117.238281 159.417969 117.238281 158.804688 117.238281 C 158.609375 117.238281 158.414062 117.242188 158.214844 117.234375 C 158.136719 117.234375 158.113281 117.257812 158.105469 117.335938 C 158.085938 117.679688 158.066406 118.027344 158.039062 118.371094 C 158.019531 118.664062 157.992188 118.957031 157.9375 119.269531 Z M 157.9375 119.269531 " fill-opacity="1" fill-rule="nonzero"/></g><g clip-path="url(#id5)"><path fill="rgb(41.178894%, 69.018555%, 42.349243%)" d="M 162.417969 98.28125 C 162.40625 98.417969 162.316406 98.511719 162.261719 98.621094 C 161.972656 99.234375 161.753906 99.882812 161.457031 100.492188 C 161.082031 101.257812 160.699219 102.019531 160.347656 102.800781 C 160.304688 102.898438 160.261719 102.996094 160.21875 103.09375 C 160.144531 103.261719 160.09375 103.277344 159.921875 103.230469 C 159.8125 103.199219 159.695312 103.195312 159.582031 103.1875 C 158.960938 103.125 158.339844 103.0625 157.71875 103 C 157.066406 102.933594 156.417969 102.851562 155.769531 102.796875 C 155.234375 102.75 154.699219 102.707031 154.160156 102.6875 C 154.136719 102.6875 154.101562 102.703125 154.089844 102.667969 C 154.078125 102.632812 154.109375 102.609375 154.132812 102.59375 C 154.160156 102.570312 154.195312 102.554688 154.226562 102.535156 C 154.753906 102.253906 155.28125 101.972656 155.808594 101.691406 C 155.855469 101.667969 155.871094 101.652344 155.835938 101.59375 C 155.261719 100.59375 154.664062 99.613281 153.992188 98.679688 C 153.226562 97.609375 152.234375 96.875 151.015625 96.449219 C 150.859375 96.390625 150.703125 96.324219 150.546875 96.257812 C 150.535156 96.253906 150.523438 96.25 150.507812 96.242188 C 150.472656 96.214844 150.410156 96.195312 150.425781 96.136719 C 150.433594 96.085938 150.496094 96.113281 150.53125 96.109375 C 150.640625 96.09375 150.753906 96.09375 150.863281 96.097656 C 151.644531 96.117188 152.425781 96.058594 153.203125 96.042969 C 154.132812 96.027344 155.054688 96.027344 155.984375 96.050781 C 156.382812 96.058594 156.789062 96.046875 157.191406 96.058594 C 157.425781 96.066406 157.671875 96.066406 157.902344 96.128906 C 158.34375 96.25 158.71875 96.484375 159.046875 96.804688 C 159.523438 97.273438 159.878906 97.832031 160.214844 98.40625 C 160.34375 98.628906 160.476562 98.851562 160.601562 99.074219 C 160.640625 99.140625 160.664062 99.152344 160.734375 99.113281 C 161.253906 98.828125 161.773438 98.546875 162.320312 98.308594 C 162.347656 98.292969 162.378906 98.269531 162.417969 98.28125 Z M 162.417969 98.28125 " fill-opacity="1" fill-rule="nonzero"/></g><g clip-path="url(#id6)"><path fill="rgb(64.709473%, 89.019775%, 60.389709%)" d="M 150.171875 96.578125 C 150.871094 96.566406 151.515625 96.734375 152.101562 97.148438 C 152.363281 97.332031 152.636719 97.496094 152.875 97.714844 C 152.992188 97.824219 153.09375 97.949219 153.203125 98.066406 C 153.355469 98.234375 153.507812 98.398438 153.65625 98.574219 C 153.789062 98.734375 153.875 98.921875 153.890625 99.132812 C 153.898438 99.230469 153.835938 99.324219 153.792969 99.410156 C 153.613281 99.789062 153.4375 100.171875 153.230469 100.539062 C 152.96875 101.007812 152.683594 101.464844 152.390625 101.917969 C 151.808594 102.824219 151.195312 103.707031 150.703125 104.664062 C 150.675781 104.71875 150.640625 104.773438 150.601562 104.816406 C 150.53125 104.898438 150.449219 104.914062 150.34375 104.882812 C 150.027344 104.789062 149.769531 104.585938 149.488281 104.417969 C 148.953125 104.097656 148.394531 103.832031 147.835938 103.558594 C 147.097656 103.199219 146.375 102.808594 145.722656 102.300781 C 145.699219 102.28125 145.675781 102.234375 145.628906 102.265625 C 145.601562 102.285156 145.570312 102.296875 145.542969 102.269531 C 145.515625 102.242188 145.519531 102.207031 145.535156 102.171875 C 145.589844 102.023438 145.644531 101.867188 145.714844 101.722656 C 146.328125 100.417969 147.070312 99.191406 147.878906 98 C 148.046875 97.746094 148.199219 97.480469 148.386719 97.242188 C 148.519531 97.074219 148.65625 96.921875 148.796875 96.769531 C 148.859375 96.699219 148.953125 96.675781 149.042969 96.65625 C 149.316406 96.601562 149.589844 96.589844 149.867188 96.59375 C 149.972656 96.59375 150.070312 96.582031 150.171875 96.578125 Z M 150.171875 96.578125 " fill-opacity="1" fill-rule="nonzero"/></g><g clip-path="url(#id7)"><path fill="rgb(64.709473%, 89.019775%, 60.389709%)" d="M 162.0625 111.421875 C 161.953125 111.425781 161.847656 111.390625 161.742188 111.371094 C 161.601562 111.34375 161.539062 111.21875 161.46875 111.113281 C 161.058594 110.484375 160.683594 109.828125 160.359375 109.148438 C 160.117188 108.632812 159.882812 108.117188 159.644531 107.601562 C 159.351562 106.957031 159.050781 106.316406 158.691406 105.703125 C 158.636719 105.605469 158.578125 105.511719 158.585938 105.394531 C 158.589844 105.34375 158.601562 105.296875 158.640625 105.261719 C 158.777344 105.144531 158.910156 105.035156 159.070312 104.953125 C 159.757812 104.609375 160.398438 104.175781 161.039062 103.742188 C 161.738281 103.269531 162.453125 102.828125 163.234375 102.511719 C 163.261719 102.5 163.296875 102.496094 163.296875 102.453125 C 163.292969 102.414062 163.300781 102.378906 163.34375 102.371094 C 163.382812 102.367188 163.410156 102.394531 163.433594 102.425781 C 163.640625 102.683594 163.808594 102.96875 163.980469 103.25 C 164.351562 103.863281 164.695312 104.492188 165.007812 105.140625 C 165.382812 105.917969 165.746094 106.695312 166.070312 107.496094 C 166.144531 107.6875 166.191406 107.890625 166.25 108.089844 C 166.261719 108.128906 166.253906 108.171875 166.246094 108.210938 C 166.203125 108.441406 166.097656 108.644531 165.988281 108.839844 C 165.804688 109.175781 165.625 109.519531 165.394531 109.824219 C 165.152344 110.144531 164.875 110.417969 164.527344 110.605469 C 164.113281 110.832031 163.707031 111.078125 163.242188 111.183594 C 162.851562 111.277344 162.460938 111.371094 162.0625 111.421875 Z M 162.0625 111.421875 " fill-opacity="1" fill-rule="nonzero"/></g><path fill="rgb(64.709473%, 89.019775%, 60.389709%)" d="M 149.246094 111.601562 C 149.964844 111.589844 150.621094 111.636719 151.285156 111.667969 C 151.941406 111.703125 152.605469 111.738281 153.265625 111.722656 C 153.417969 111.71875 153.574219 111.703125 153.730469 111.703125 C 153.886719 111.707031 153.949219 111.777344 153.992188 111.929688 C 154.082031 112.234375 154.042969 112.539062 154.042969 112.847656 C 154.046875 113.3125 154.078125 113.773438 154.125 114.234375 C 154.160156 114.609375 154.179688 114.984375 154.210938 115.363281 C 154.246094 115.753906 154.257812 116.148438 154.246094 116.542969 C 154.238281 116.800781 154.234375 117.058594 154.195312 117.316406 C 154.191406 117.351562 154.179688 117.386719 154.226562 117.402344 C 154.253906 117.414062 154.273438 117.433594 154.265625 117.464844 C 154.257812 117.503906 154.226562 117.523438 154.191406 117.527344 C 154.03125 117.554688 153.867188 117.59375 153.703125 117.605469 C 153.269531 117.640625 152.828125 117.667969 152.390625 117.679688 C 151.914062 117.695312 151.4375 117.703125 150.964844 117.6875 C 150.277344 117.664062 149.589844 117.621094 148.902344 117.582031 C 148.597656 117.566406 148.304688 117.496094 148.007812 117.4375 C 147.910156 117.417969 147.835938 117.34375 147.769531 117.269531 C 147.582031 117.054688 147.4375 116.808594 147.285156 116.566406 C 147.132812 116.320312 146.988281 116.074219 146.867188 115.8125 C 146.738281 115.511719 146.640625 115.203125 146.628906 114.875 C 146.605469 114.34375 146.601562 113.8125 146.707031 113.285156 C 146.730469 113.167969 146.777344 113.054688 146.808594 112.9375 C 146.875 112.695312 146.9375 112.449219 147.015625 112.210938 C 147.078125 112.03125 147.183594 111.878906 147.335938 111.753906 C 147.421875 111.6875 147.523438 111.695312 147.617188 111.6875 C 148.175781 111.632812 148.738281 111.578125 149.246094 111.601562 Z M 149.246094 111.601562 " fill-opacity="1" fill-rule="nonzero"/><path fill="rgb(31.369019%, 48.239136%, 42.749023%)" d="M 142.269531 17.910156 L 142.269531 43.410156 L 179.003906 43.410156 L 179.003906 17.910156 L 142.269531 17.910156 M 177.835938 42.246094 L 143.414062 42.246094 L 143.414062 19.054688 L 177.835938 19.054688 L 177.835938 42.246094 " fill-opacity="1" fill-rule="nonzero"/><path fill="rgb(31.369019%, 48.239136%, 42.749023%)" d="M 142.6875 13.746094 L 178.585938 13.746094 L 178.585938 18.140625 L 142.6875 18.140625 L 142.6875 13.746094 " fill-opacity="1" fill-rule="nonzero"/><path fill="rgb(31.369019%, 48.239136%, 42.749023%)" d="M 178.175781 17.710938 L 178.996094 17.710938 L 178.996094 18.570312 L 178.175781 18.570312 L 178.175781 17.710938 M 142.277344 14.175781 L 143.097656 14.175781 L 143.097656 17.710938 L 142.277344 17.710938 L 142.277344 14.175781 M 142.277344 17.710938 L 143.097656 17.710938 L 143.097656 18.570312 L 142.277344 18.570312 L 142.277344 17.710938 M 178.175781 14.175781 L 178.996094 14.175781 L 178.996094 17.710938 L 178.175781 17.710938 L 178.175781 14.175781 M 143.097656 17.710938 L 178.175781 17.710938 L 178.175781 18.570312 L 143.097656 18.570312 L 143.097656 17.710938 M 178.175781 13.320312 L 178.996094 13.320312 L 178.996094 14.175781 L 178.175781 14.175781 L 178.175781 13.320312 M 142.277344 13.320312 L 143.097656 13.320312 L 143.097656 14.175781 L 142.277344 14.175781 L 142.277344 13.320312 M 143.097656 13.320312 L 178.175781 13.320312 L 178.175781 14.175781 L 143.097656 14.175781 L 143.097656 13.320312 " fill-opacity="1" fill-rule="nonzero"/><g fill="rgb(100%, 100%, 100%)" fill-opacity="1"><g transform="translate(144.624164, 17.253253)"><g><path d="M 0.671875 -3.078125 L 0.96875 -3 C 0.957031 -2.851562 0.925781 -2.707031 0.875 -2.5625 L 1.609375 -2.5625 L 1.609375 -2.296875 C 1.609375 -2.285156 1.582031 -2.203125 1.53125 -2.046875 C 1.476562 -1.898438 1.414062 -1.765625 1.34375 -1.640625 L 1.09375 -1.78125 C 1.175781 -1.945312 1.242188 -2.117188 1.296875 -2.296875 L 0.78125 -2.296875 C 0.675781 -1.941406 0.535156 -1.644531 0.359375 -1.40625 L 0.140625 -1.640625 C 0.390625 -2.054688 0.566406 -2.535156 0.671875 -3.078125 Z M 0.703125 -1.828125 L 0.984375 -1.828125 L 0.984375 -0.125 C 1.140625 -0.21875 1.273438 -0.316406 1.390625 -0.421875 L 1.453125 -0.109375 C 1.273438 0.046875 1.070312 0.1875 0.84375 0.3125 L 0.703125 0.140625 Z M 2.296875 -2.234375 C 2.210938 -1.972656 2.082031 -1.710938 1.90625 -1.453125 L 1.6875 -1.671875 C 1.925781 -2.066406 2.113281 -2.539062 2.25 -3.09375 L 2.53125 -3 C 2.488281 -2.832031 2.441406 -2.671875 2.390625 -2.515625 L 3.46875 -2.515625 L 3.46875 -2.25 C 3.46875 -2.238281 3.4375 -2.15625 3.375 -2 C 3.320312 -1.84375 3.257812 -1.695312 3.1875 -1.5625 L 2.953125 -1.703125 C 3.035156 -1.878906 3.097656 -2.054688 3.140625 -2.234375 Z M 2.4375 -2 L 2.71875 -1.96875 L 2.703125 -1.484375 C 2.703125 -1.378906 2.773438 -1.144531 2.921875 -0.78125 C 3.066406 -0.425781 3.300781 -0.128906 3.625 0.109375 L 3.375 0.34375 C 3.019531 0.03125 2.765625 -0.382812 2.609375 -0.90625 C 2.503906 -0.394531 2.25 0.0195312 1.84375 0.34375 L 1.625 0.109375 C 1.90625 -0.117188 2.109375 -0.378906 2.234375 -0.671875 C 2.359375 -0.960938 2.425781 -1.40625 2.4375 -2 Z M 2.4375 -2 "/></g></g><g transform="translate(148.409035, 17.253253)"><g><path d="M 3.640625 -1.171875 L 3.65625 -0.890625 L 3.21875 -0.78125 L 3.21875 0.34375 L 2.9375 0.34375 L 2.9375 -0.71875 L 2.046875 -0.53125 L 2.015625 -0.8125 L 2.9375 -1.015625 L 2.9375 -3.0625 L 3.21875 -3.0625 L 3.21875 -1.078125 Z M 2.296875 -2.78125 C 2.492188 -2.632812 2.675781 -2.472656 2.84375 -2.296875 L 2.65625 -2.03125 C 2.476562 -2.25 2.296875 -2.429688 2.109375 -2.578125 Z M 2.125 -1.90625 C 2.34375 -1.757812 2.539062 -1.585938 2.71875 -1.390625 L 2.53125 -1.15625 C 2.34375 -1.375 2.144531 -1.554688 1.9375 -1.703125 Z M 0.28125 -1.859375 L 0.890625 -1.859375 L 0.890625 -3.0625 L 1.15625 -3.0625 L 1.15625 -1.859375 L 1.75 -1.859375 L 1.75 -1.609375 L 1.15625 -1.609375 L 1.15625 -1.328125 C 1.382812 -1.128906 1.582031 -0.9375 1.75 -0.75 L 1.5625 -0.46875 C 1.425781 -0.65625 1.289062 -0.828125 1.15625 -0.984375 L 1.15625 0.359375 L 0.890625 0.359375 L 0.890625 -1.03125 C 0.742188 -0.738281 0.566406 -0.46875 0.359375 -0.21875 L 0.15625 -0.453125 C 0.46875 -0.785156 0.703125 -1.171875 0.859375 -1.609375 L 0.28125 -1.609375 Z M 0.515625 -2.8125 C 0.597656 -2.59375 0.671875 -2.351562 0.734375 -2.09375 L 0.515625 -2 C 0.441406 -2.257812 0.363281 -2.492188 0.28125 -2.703125 Z M 1.5625 -2.8125 L 1.78125 -2.734375 C 1.707031 -2.441406 1.613281 -2.191406 1.5 -1.984375 L 1.28125 -2.09375 C 1.414062 -2.34375 1.507812 -2.582031 1.5625 -2.8125 Z M 1.5625 -2.8125 "/></g></g><g transform="translate(152.193905, 17.253253)"><g><path d="M 1.78125 -2.890625 L 3.4375 -2.890625 L 3.4375 -2.609375 L 2.390625 -2.609375 L 2.328125 -2.09375 L 3.234375 -2.09375 C 3.128906 -0.820312 3.078125 -0.140625 3.078125 -0.046875 C 3.078125 0.015625 3.109375 0.046875 3.171875 0.046875 C 3.222656 0.046875 3.257812 0.03125 3.28125 0 C 3.300781 -0.03125 3.320312 -0.113281 3.34375 -0.25 L 3.625 -0.15625 C 3.59375 0.0390625 3.546875 0.164062 3.484375 0.21875 C 3.421875 0.28125 3.335938 0.3125 3.234375 0.3125 L 3.109375 0.3125 C 2.992188 0.3125 2.910156 0.285156 2.859375 0.234375 C 2.804688 0.191406 2.78125 0.125 2.78125 0.03125 C 2.78125 -0.0625 2.828125 -0.675781 2.921875 -1.8125 L 2.296875 -1.8125 L 2.078125 0.03125 C 2.234375 0 2.394531 -0.046875 2.5625 -0.109375 L 2.609375 0.140625 C 2.347656 0.222656 2.113281 0.28125 1.90625 0.3125 L 1.78125 0.125 L 2.109375 -2.609375 L 1.78125 -2.609375 Z M 2.609375 -1.453125 C 2.671875 -1.203125 2.710938 -0.945312 2.734375 -0.6875 L 2.484375 -0.625 C 2.460938 -0.894531 2.421875 -1.144531 2.359375 -1.375 Z M 0.28125 -2.390625 L 1.078125 -2.390625 C 1.191406 -2.609375 1.300781 -2.84375 1.40625 -3.09375 L 1.6875 -3 C 1.582031 -2.769531 1.476562 -2.566406 1.375 -2.390625 L 1.75 -2.390625 L 1.75 -2.109375 L 1.484375 -2.109375 L 1.484375 -1.296875 L 1.828125 -1.296875 L 1.828125 -1.015625 L 1.484375 -1.015625 L 1.484375 0.3125 L 1.21875 0.3125 L 1.21875 -1.015625 L 0.796875 -1.015625 C 0.753906 -0.421875 0.609375 0.0234375 0.359375 0.328125 L 0.140625 0.109375 C 0.347656 -0.128906 0.472656 -0.503906 0.515625 -1.015625 L 0.21875 -1.015625 L 0.21875 -1.296875 L 0.53125 -1.296875 C 0.539062 -1.378906 0.546875 -1.460938 0.546875 -1.546875 L 0.546875 -2.109375 L 0.28125 -2.109375 Z M 1.21875 -1.296875 L 1.21875 -2.109375 L 0.828125 -2.109375 L 0.828125 -1.515625 C 0.828125 -1.441406 0.820312 -1.367188 0.8125 -1.296875 Z M 0.5625 -3.0625 C 0.6875 -2.914062 0.796875 -2.757812 0.890625 -2.59375 L 0.625 -2.484375 C 0.539062 -2.648438 0.4375 -2.800781 0.3125 -2.9375 Z M 0.5625 -3.0625 "/></g></g><g transform="translate(155.978775, 17.253253)"><g/></g><g transform="translate(156.961954, 17.253253)"><g><path d="M 1.90625 -1.359375 C 1.90625 -1.140625 1.890625 -0.941406 1.859375 -0.765625 C 1.828125 -0.597656 1.773438 -0.453125 1.703125 -0.328125 C 1.640625 -0.210938 1.550781 -0.125 1.4375 -0.0625 C 1.332031 0 1.203125 0.03125 1.046875 0.03125 C 0.898438 0.03125 0.769531 0 0.65625 -0.0625 C 0.550781 -0.125 0.460938 -0.210938 0.390625 -0.328125 C 0.316406 -0.453125 0.265625 -0.597656 0.234375 -0.765625 C 0.203125 -0.941406 0.1875 -1.140625 0.1875 -1.359375 C 0.1875 -1.578125 0.203125 -1.769531 0.234375 -1.9375 C 0.265625 -2.113281 0.3125 -2.257812 0.375 -2.375 C 0.445312 -2.488281 0.535156 -2.578125 0.640625 -2.640625 C 0.753906 -2.703125 0.890625 -2.734375 1.046875 -2.734375 C 1.191406 -2.734375 1.316406 -2.703125 1.421875 -2.640625 C 1.523438 -2.585938 1.613281 -2.5 1.6875 -2.375 C 1.757812 -2.257812 1.8125 -2.113281 1.84375 -1.9375 C 1.882812 -1.769531 1.90625 -1.578125 1.90625 -1.359375 Z M 0.515625 -1.359375 C 0.515625 -1.171875 0.523438 -1.003906 0.546875 -0.859375 C 0.566406 -0.722656 0.597656 -0.609375 0.640625 -0.515625 C 0.679688 -0.429688 0.734375 -0.363281 0.796875 -0.3125 C 0.859375 -0.269531 0.941406 -0.25 1.046875 -0.25 C 1.140625 -0.25 1.21875 -0.269531 1.28125 -0.3125 C 1.34375 -0.363281 1.394531 -0.429688 1.4375 -0.515625 C 1.488281 -0.609375 1.519531 -0.722656 1.53125 -0.859375 C 1.550781 -1.003906 1.5625 -1.171875 1.5625 -1.359375 C 1.5625 -1.535156 1.550781 -1.691406 1.53125 -1.828125 C 1.519531 -1.972656 1.488281 -2.085938 1.4375 -2.171875 C 1.394531 -2.265625 1.34375 -2.332031 1.28125 -2.375 C 1.21875 -2.425781 1.140625 -2.453125 1.046875 -2.453125 C 0.941406 -2.453125 0.859375 -2.425781 0.796875 -2.375 C 0.734375 -2.332031 0.679688 -2.265625 0.640625 -2.171875 C 0.597656 -2.085938 0.566406 -1.972656 0.546875 -1.828125 C 0.523438 -1.691406 0.515625 -1.535156 0.515625 -1.359375 Z M 0.515625 -1.359375 "/></g></g><g transform="translate(159.04659, 17.253253)"><g><path d="M 0.265625 -0.203125 C 0.265625 -0.253906 0.269531 -0.296875 0.28125 -0.328125 C 0.300781 -0.359375 0.320312 -0.382812 0.34375 -0.40625 C 0.363281 -0.425781 0.382812 -0.441406 0.40625 -0.453125 C 0.4375 -0.460938 0.46875 -0.46875 0.5 -0.46875 C 0.53125 -0.46875 0.5625 -0.460938 0.59375 -0.453125 C 0.625 -0.441406 0.648438 -0.425781 0.671875 -0.40625 C 0.691406 -0.382812 0.707031 -0.359375 0.71875 -0.328125 C 0.726562 -0.296875 0.734375 -0.253906 0.734375 -0.203125 C 0.734375 -0.160156 0.726562 -0.117188 0.71875 -0.078125 C 0.707031 -0.046875 0.691406 -0.0195312 0.671875 0 C 0.648438 0.0195312 0.625 0.03125 0.59375 0.03125 C 0.5625 0.0390625 0.53125 0.046875 0.5 0.046875 C 0.46875 0.046875 0.4375 0.0390625 0.40625 0.03125 C 0.382812 0.03125 0.363281 0.0195312 0.34375 0 C 0.320312 -0.0195312 0.300781 -0.046875 0.28125 -0.078125 C 0.269531 -0.117188 0.265625 -0.160156 0.265625 -0.203125 Z M 0.265625 -0.203125 "/></g></g><g transform="translate(160.061186, 17.253253)"><g><path d="M 0.515625 0 L 1.5625 -2.390625 L 0.171875 -2.390625 L 0.171875 -2.703125 L 1.90625 -2.703125 L 1.90625 -2.4375 L 0.875 0 Z M 0.515625 0 "/></g></g><g transform="translate(162.145822, 17.253253)"><g><path d="M 1 -1.65625 C 1.125 -1.65625 1.238281 -1.632812 1.34375 -1.59375 C 1.445312 -1.5625 1.535156 -1.515625 1.609375 -1.453125 C 1.691406 -1.390625 1.753906 -1.304688 1.796875 -1.203125 C 1.847656 -1.109375 1.875 -0.992188 1.875 -0.859375 C 1.875 -0.722656 1.851562 -0.597656 1.8125 -0.484375 C 1.769531 -0.367188 1.707031 -0.273438 1.625 -0.203125 C 1.539062 -0.128906 1.4375 -0.0703125 1.3125 -0.03125 C 1.195312 0.0078125 1.0625 0.03125 0.90625 0.03125 C 0.84375 0.03125 0.78125 0.0234375 0.71875 0.015625 C 0.65625 0.015625 0.59375 0.0078125 0.53125 0 C 0.476562 -0.0078125 0.425781 -0.0234375 0.375 -0.046875 C 0.320312 -0.0664062 0.273438 -0.0859375 0.234375 -0.109375 L 0.234375 -0.421875 C 0.273438 -0.398438 0.320312 -0.375 0.375 -0.34375 C 0.4375 -0.320312 0.492188 -0.300781 0.546875 -0.28125 C 0.609375 -0.269531 0.671875 -0.257812 0.734375 -0.25 C 0.796875 -0.25 0.851562 -0.25 0.90625 -0.25 C 1 -0.25 1.082031 -0.257812 1.15625 -0.28125 C 1.238281 -0.300781 1.304688 -0.335938 1.359375 -0.390625 C 1.410156 -0.441406 1.453125 -0.5 1.484375 -0.5625 C 1.515625 -0.632812 1.53125 -0.722656 1.53125 -0.828125 C 1.53125 -1.003906 1.472656 -1.140625 1.359375 -1.234375 C 1.253906 -1.328125 1.097656 -1.375 0.890625 -1.375 C 0.859375 -1.375 0.820312 -1.367188 0.78125 -1.359375 C 0.738281 -1.359375 0.695312 -1.351562 0.65625 -1.34375 C 0.625 -1.34375 0.585938 -1.335938 0.546875 -1.328125 C 0.515625 -1.328125 0.488281 -1.328125 0.46875 -1.328125 L 0.296875 -1.421875 L 0.40625 -2.703125 L 1.671875 -2.703125 L 1.671875 -2.390625 L 0.6875 -2.390625 L 0.625 -1.625 C 0.65625 -1.625 0.703125 -1.628906 0.765625 -1.640625 C 0.835938 -1.648438 0.914062 -1.65625 1 -1.65625 Z M 1 -1.65625 "/></g></g></g></svg>